<?xml version="1.0" encoding="utf-8" standalone="no"?>
<!DOCTYPE svg PUBLIC "-//W3C//DTD SVG 1.1//EN"
  "http://www.w3.org/Graphics/SVG/1.1/DTD/svg11.dtd">
<svg xmlns:xlink="http://www.w3.org/1999/xlink" width="460.8pt" height="345.6pt" viewBox="0 0 460.8 345.6" xmlns="http://www.w3.org/2000/svg" version="1.1">
 <metadata>
  <rdf:RDF xmlns:dc="http://purl.org/dc/elements/1.1/" xmlns:cc="http://creativecommons.org/ns#" xmlns:rdf="http://www.w3.org/1999/02/22-rdf-syntax-ns#">
   <cc:Work>
    <dc:type rdf:resource="http://purl.org/dc/dcmitype/StillImage"/>
    <dc:date>2024-02-14T12:28:43.153499</dc:date>
    <dc:format>image/svg+xml</dc:format>
    <dc:creator>
     <cc:Agent>
      <dc:title>Matplotlib v3.7.2, https://matplotlib.org/</dc:title>
     </cc:Agent>
    </dc:creator>
   </cc:Work>
  </rdf:RDF>
 </metadata>
 <defs>
  <style type="text/css">*{stroke-linejoin: round; stroke-linecap: butt}</style>
 </defs>
 <g id="figure_1">
  <g id="patch_1">
   <path d="M 0 345.6 
L 460.8 345.6 
L 460.8 0 
L 0 0 
z
" style="fill: #ffffff"/>
  </g>
  <g id="axes_1">
   <g id="patch_2">
    <path d="M 56.18 303.64 
L 450 303.64 
L 450 25.44 
L 56.18 25.44 
z
" style="fill: #ffffff"/>
   </g>
   <g id="matplotlib.axis_1">
    <g id="xtick_1">
     <g id="line2d_1">
      <defs>
       <path id="m997250f073" d="M 0 0 
L 0 3.5 
" style="stroke: #000000; stroke-width: 0.8"/>
      </defs>
      <g>
       <use xlink:href="#m997250f073" x="74.08079" y="303.64" style="stroke: #000000; stroke-width: 0.8"/>
      </g>
     </g>
     <g id="text_1">
      <!-- 0.0 -->
      <g transform="translate(66.129227 318.238437) scale(0.1 -0.1)">
       <defs>
        <path id="DejaVuSans-30" d="M 2034 4250 
Q 1547 4250 1301 3770 
Q 1056 3291 1056 2328 
Q 1056 1369 1301 889 
Q 1547 409 2034 409 
Q 2525 409 2770 889 
Q 3016 1369 3016 2328 
Q 3016 3291 2770 3770 
Q 2525 4250 2034 4250 
z
M 2034 4750 
Q 2819 4750 3233 4129 
Q 3647 3509 3647 2328 
Q 3647 1150 3233 529 
Q 2819 -91 2034 -91 
Q 1250 -91 836 529 
Q 422 1150 422 2328 
Q 422 3509 836 4129 
Q 1250 4750 2034 4750 
z
" transform="scale(0.015625)"/>
        <path id="DejaVuSans-2e" d="M 684 794 
L 1344 794 
L 1344 0 
L 684 0 
L 684 794 
z
" transform="scale(0.015625)"/>
       </defs>
       <use xlink:href="#DejaVuSans-30"/>
       <use xlink:href="#DejaVuSans-2e" x="63.623047"/>
       <use xlink:href="#DejaVuSans-30" x="95.410156"/>
      </g>
     </g>
    </g>
    <g id="xtick_2">
     <g id="line2d_2">
      <g>
       <use xlink:href="#m997250f073" x="133.750507" y="303.64" style="stroke: #000000; stroke-width: 0.8"/>
      </g>
     </g>
     <g id="text_2">
      <!-- 0.5 -->
      <g transform="translate(125.798944 318.238437) scale(0.1 -0.1)">
       <defs>
        <path id="DejaVuSans-35" d="M 691 4666 
L 3169 4666 
L 3169 4134 
L 1269 4134 
L 1269 2991 
Q 1406 3038 1543 3061 
Q 1681 3084 1819 3084 
Q 2600 3084 3056 2656 
Q 3513 2228 3513 1497 
Q 3513 744 3044 326 
Q 2575 -91 1722 -91 
Q 1428 -91 1123 -41 
Q 819 9 494 109 
L 494 744 
Q 775 591 1075 516 
Q 1375 441 1709 441 
Q 2250 441 2565 725 
Q 2881 1009 2881 1497 
Q 2881 1984 2565 2268 
Q 2250 2553 1709 2553 
Q 1456 2553 1204 2497 
Q 953 2441 691 2322 
L 691 4666 
z
" transform="scale(0.015625)"/>
       </defs>
       <use xlink:href="#DejaVuSans-30"/>
       <use xlink:href="#DejaVuSans-2e" x="63.623047"/>
       <use xlink:href="#DejaVuSans-35" x="95.410156"/>
      </g>
     </g>
    </g>
    <g id="xtick_3">
     <g id="line2d_3">
      <g>
       <use xlink:href="#m997250f073" x="193.420223" y="303.64" style="stroke: #000000; stroke-width: 0.8"/>
      </g>
     </g>
     <g id="text_3">
      <!-- 1.0 -->
      <g transform="translate(185.468661 318.238437) scale(0.1 -0.1)">
       <defs>
        <path id="DejaVuSans-31" d="M 794 531 
L 1825 531 
L 1825 4091 
L 703 3866 
L 703 4441 
L 1819 4666 
L 2450 4666 
L 2450 531 
L 3481 531 
L 3481 0 
L 794 0 
L 794 531 
z
" transform="scale(0.015625)"/>
       </defs>
       <use xlink:href="#DejaVuSans-31"/>
       <use xlink:href="#DejaVuSans-2e" x="63.623047"/>
       <use xlink:href="#DejaVuSans-30" x="95.410156"/>
      </g>
     </g>
    </g>
    <g id="xtick_4">
     <g id="line2d_4">
      <g>
       <use xlink:href="#m997250f073" x="253.08994" y="303.64" style="stroke: #000000; stroke-width: 0.8"/>
      </g>
     </g>
     <g id="text_4">
      <!-- 1.5 -->
      <g transform="translate(245.138378 318.238437) scale(0.1 -0.1)">
       <use xlink:href="#DejaVuSans-31"/>
       <use xlink:href="#DejaVuSans-2e" x="63.623047"/>
       <use xlink:href="#DejaVuSans-35" x="95.410156"/>
      </g>
     </g>
    </g>
    <g id="xtick_5">
     <g id="line2d_5">
      <g>
       <use xlink:href="#m997250f073" x="312.759657" y="303.64" style="stroke: #000000; stroke-width: 0.8"/>
      </g>
     </g>
     <g id="text_5">
      <!-- 2.0 -->
      <g transform="translate(304.808095 318.238437) scale(0.1 -0.1)">
       <defs>
        <path id="DejaVuSans-32" d="M 1228 531 
L 3431 531 
L 3431 0 
L 469 0 
L 469 531 
Q 828 903 1448 1529 
Q 2069 2156 2228 2338 
Q 2531 2678 2651 2914 
Q 2772 3150 2772 3378 
Q 2772 3750 2511 3984 
Q 2250 4219 1831 4219 
Q 1534 4219 1204 4116 
Q 875 4013 500 3803 
L 500 4441 
Q 881 4594 1212 4672 
Q 1544 4750 1819 4750 
Q 2544 4750 2975 4387 
Q 3406 4025 3406 3419 
Q 3406 3131 3298 2873 
Q 3191 2616 2906 2266 
Q 2828 2175 2409 1742 
Q 1991 1309 1228 531 
z
" transform="scale(0.015625)"/>
       </defs>
       <use xlink:href="#DejaVuSans-32"/>
       <use xlink:href="#DejaVuSans-2e" x="63.623047"/>
       <use xlink:href="#DejaVuSans-30" x="95.410156"/>
      </g>
     </g>
    </g>
    <g id="xtick_6">
     <g id="line2d_6">
      <g>
       <use xlink:href="#m997250f073" x="372.429374" y="303.64" style="stroke: #000000; stroke-width: 0.8"/>
      </g>
     </g>
     <g id="text_6">
      <!-- 2.5 -->
      <g transform="translate(364.477812 318.238437) scale(0.1 -0.1)">
       <use xlink:href="#DejaVuSans-32"/>
       <use xlink:href="#DejaVuSans-2e" x="63.623047"/>
       <use xlink:href="#DejaVuSans-35" x="95.410156"/>
      </g>
     </g>
    </g>
    <g id="xtick_7">
     <g id="line2d_7">
      <g>
       <use xlink:href="#m997250f073" x="432.099091" y="303.64" style="stroke: #000000; stroke-width: 0.8"/>
      </g>
     </g>
     <g id="text_7">
      <!-- 3.0 -->
      <g transform="translate(424.147528 318.238437) scale(0.1 -0.1)">
       <defs>
        <path id="DejaVuSans-33" d="M 2597 2516 
Q 3050 2419 3304 2112 
Q 3559 1806 3559 1356 
Q 3559 666 3084 287 
Q 2609 -91 1734 -91 
Q 1441 -91 1130 -33 
Q 819 25 488 141 
L 488 750 
Q 750 597 1062 519 
Q 1375 441 1716 441 
Q 2309 441 2620 675 
Q 2931 909 2931 1356 
Q 2931 1769 2642 2001 
Q 2353 2234 1838 2234 
L 1294 2234 
L 1294 2753 
L 1863 2753 
Q 2328 2753 2575 2939 
Q 2822 3125 2822 3475 
Q 2822 3834 2567 4026 
Q 2313 4219 1838 4219 
Q 1578 4219 1281 4162 
Q 984 4106 628 3988 
L 628 4550 
Q 988 4650 1302 4700 
Q 1616 4750 1894 4750 
Q 2613 4750 3031 4423 
Q 3450 4097 3450 3541 
Q 3450 3153 3228 2886 
Q 3006 2619 2597 2516 
z
" transform="scale(0.015625)"/>
       </defs>
       <use xlink:href="#DejaVuSans-33"/>
       <use xlink:href="#DejaVuSans-2e" x="63.623047"/>
       <use xlink:href="#DejaVuSans-30" x="95.410156"/>
      </g>
     </g>
    </g>
    <g id="text_8">
     <!-- Energy -->
     <g transform="translate(235.58375 331.916562) scale(0.1 -0.1)">
      <defs>
       <path id="DejaVuSans-45" d="M 628 4666 
L 3578 4666 
L 3578 4134 
L 1259 4134 
L 1259 2753 
L 3481 2753 
L 3481 2222 
L 1259 2222 
L 1259 531 
L 3634 531 
L 3634 0 
L 628 0 
L 628 4666 
z
" transform="scale(0.015625)"/>
       <path id="DejaVuSans-6e" d="M 3513 2113 
L 3513 0 
L 2938 0 
L 2938 2094 
Q 2938 2591 2744 2837 
Q 2550 3084 2163 3084 
Q 1697 3084 1428 2787 
Q 1159 2491 1159 1978 
L 1159 0 
L 581 0 
L 581 3500 
L 1159 3500 
L 1159 2956 
Q 1366 3272 1645 3428 
Q 1925 3584 2291 3584 
Q 2894 3584 3203 3211 
Q 3513 2838 3513 2113 
z
" transform="scale(0.015625)"/>
       <path id="DejaVuSans-65" d="M 3597 1894 
L 3597 1613 
L 953 1613 
Q 991 1019 1311 708 
Q 1631 397 2203 397 
Q 2534 397 2845 478 
Q 3156 559 3463 722 
L 3463 178 
Q 3153 47 2828 -22 
Q 2503 -91 2169 -91 
Q 1331 -91 842 396 
Q 353 884 353 1716 
Q 353 2575 817 3079 
Q 1281 3584 2069 3584 
Q 2775 3584 3186 3129 
Q 3597 2675 3597 1894 
z
M 3022 2063 
Q 3016 2534 2758 2815 
Q 2500 3097 2075 3097 
Q 1594 3097 1305 2825 
Q 1016 2553 972 2059 
L 3022 2063 
z
" transform="scale(0.015625)"/>
       <path id="DejaVuSans-72" d="M 2631 2963 
Q 2534 3019 2420 3045 
Q 2306 3072 2169 3072 
Q 1681 3072 1420 2755 
Q 1159 2438 1159 1844 
L 1159 0 
L 581 0 
L 581 3500 
L 1159 3500 
L 1159 2956 
Q 1341 3275 1631 3429 
Q 1922 3584 2338 3584 
Q 2397 3584 2469 3576 
Q 2541 3569 2628 3553 
L 2631 2963 
z
" transform="scale(0.015625)"/>
       <path id="DejaVuSans-67" d="M 2906 1791 
Q 2906 2416 2648 2759 
Q 2391 3103 1925 3103 
Q 1463 3103 1205 2759 
Q 947 2416 947 1791 
Q 947 1169 1205 825 
Q 1463 481 1925 481 
Q 2391 481 2648 825 
Q 2906 1169 2906 1791 
z
M 3481 434 
Q 3481 -459 3084 -895 
Q 2688 -1331 1869 -1331 
Q 1566 -1331 1297 -1286 
Q 1028 -1241 775 -1147 
L 775 -588 
Q 1028 -725 1275 -790 
Q 1522 -856 1778 -856 
Q 2344 -856 2625 -561 
Q 2906 -266 2906 331 
L 2906 616 
Q 2728 306 2450 153 
Q 2172 0 1784 0 
Q 1141 0 747 490 
Q 353 981 353 1791 
Q 353 2603 747 3093 
Q 1141 3584 1784 3584 
Q 2172 3584 2450 3431 
Q 2728 3278 2906 2969 
L 2906 3500 
L 3481 3500 
L 3481 434 
z
" transform="scale(0.015625)"/>
       <path id="DejaVuSans-79" d="M 2059 -325 
Q 1816 -950 1584 -1140 
Q 1353 -1331 966 -1331 
L 506 -1331 
L 506 -850 
L 844 -850 
Q 1081 -850 1212 -737 
Q 1344 -625 1503 -206 
L 1606 56 
L 191 3500 
L 800 3500 
L 1894 763 
L 2988 3500 
L 3597 3500 
L 2059 -325 
z
" transform="scale(0.015625)"/>
      </defs>
      <use xlink:href="#DejaVuSans-45"/>
      <use xlink:href="#DejaVuSans-6e" x="63.183594"/>
      <use xlink:href="#DejaVuSans-65" x="126.5625"/>
      <use xlink:href="#DejaVuSans-72" x="188.085938"/>
      <use xlink:href="#DejaVuSans-67" x="227.449219"/>
      <use xlink:href="#DejaVuSans-79" x="290.925781"/>
     </g>
    </g>
    <g id="text_9">
     <!-- 1e6 -->
     <g transform="translate(431.121875 330.916562) scale(0.1 -0.1)">
      <defs>
       <path id="DejaVuSans-36" d="M 2113 2584 
Q 1688 2584 1439 2293 
Q 1191 2003 1191 1497 
Q 1191 994 1439 701 
Q 1688 409 2113 409 
Q 2538 409 2786 701 
Q 3034 994 3034 1497 
Q 3034 2003 2786 2293 
Q 2538 2584 2113 2584 
z
M 3366 4563 
L 3366 3988 
Q 3128 4100 2886 4159 
Q 2644 4219 2406 4219 
Q 1781 4219 1451 3797 
Q 1122 3375 1075 2522 
Q 1259 2794 1537 2939 
Q 1816 3084 2150 3084 
Q 2853 3084 3261 2657 
Q 3669 2231 3669 1497 
Q 3669 778 3244 343 
Q 2819 -91 2113 -91 
Q 1303 -91 875 529 
Q 447 1150 447 2328 
Q 447 3434 972 4092 
Q 1497 4750 2381 4750 
Q 2619 4750 2861 4703 
Q 3103 4656 3366 4563 
z
" transform="scale(0.015625)"/>
      </defs>
      <use xlink:href="#DejaVuSans-31"/>
      <use xlink:href="#DejaVuSans-65" x="63.623047"/>
      <use xlink:href="#DejaVuSans-36" x="125.146484"/>
     </g>
    </g>
   </g>
   <g id="matplotlib.axis_2">
    <g id="ytick_1">
     <g id="line2d_8">
      <defs>
       <path id="mb4ac26e2b1" d="M 0 0 
L -3.5 0 
" style="stroke: #000000; stroke-width: 0.8"/>
      </defs>
      <g>
       <use xlink:href="#mb4ac26e2b1" x="56.18" y="269.31254" style="stroke: #000000; stroke-width: 0.8"/>
      </g>
     </g>
     <g id="text_10">
      <!-- −1.0 -->
      <g transform="translate(24.897188 273.111759) scale(0.1 -0.1)">
       <defs>
        <path id="DejaVuSans-2212" d="M 678 2272 
L 4684 2272 
L 4684 1741 
L 678 1741 
L 678 2272 
z
" transform="scale(0.015625)"/>
       </defs>
       <use xlink:href="#DejaVuSans-2212"/>
       <use xlink:href="#DejaVuSans-31" x="83.789062"/>
       <use xlink:href="#DejaVuSans-2e" x="147.412109"/>
       <use xlink:href="#DejaVuSans-30" x="179.199219"/>
      </g>
     </g>
    </g>
    <g id="ytick_2">
     <g id="line2d_9">
      <g>
       <use xlink:href="#mb4ac26e2b1" x="56.18" y="233.00134" style="stroke: #000000; stroke-width: 0.8"/>
      </g>
     </g>
     <g id="text_11">
      <!-- −0.5 -->
      <g transform="translate(24.897188 236.800559) scale(0.1 -0.1)">
       <use xlink:href="#DejaVuSans-2212"/>
       <use xlink:href="#DejaVuSans-30" x="83.789062"/>
       <use xlink:href="#DejaVuSans-2e" x="147.412109"/>
       <use xlink:href="#DejaVuSans-35" x="179.199219"/>
      </g>
     </g>
    </g>
    <g id="ytick_3">
     <g id="line2d_10">
      <g>
       <use xlink:href="#mb4ac26e2b1" x="56.18" y="196.69014" style="stroke: #000000; stroke-width: 0.8"/>
      </g>
     </g>
     <g id="text_12">
      <!-- 0.0 -->
      <g transform="translate(33.276875 200.489359) scale(0.1 -0.1)">
       <use xlink:href="#DejaVuSans-30"/>
       <use xlink:href="#DejaVuSans-2e" x="63.623047"/>
       <use xlink:href="#DejaVuSans-30" x="95.410156"/>
      </g>
     </g>
    </g>
    <g id="ytick_4">
     <g id="line2d_11">
      <g>
       <use xlink:href="#mb4ac26e2b1" x="56.18" y="160.37894" style="stroke: #000000; stroke-width: 0.8"/>
      </g>
     </g>
     <g id="text_13">
      <!-- 0.5 -->
      <g transform="translate(33.276875 164.178159) scale(0.1 -0.1)">
       <use xlink:href="#DejaVuSans-30"/>
       <use xlink:href="#DejaVuSans-2e" x="63.623047"/>
       <use xlink:href="#DejaVuSans-35" x="95.410156"/>
      </g>
     </g>
    </g>
    <g id="ytick_5">
     <g id="line2d_12">
      <g>
       <use xlink:href="#mb4ac26e2b1" x="56.18" y="124.06774" style="stroke: #000000; stroke-width: 0.8"/>
      </g>
     </g>
     <g id="text_14">
      <!-- 1.0 -->
      <g transform="translate(33.276875 127.866959) scale(0.1 -0.1)">
       <use xlink:href="#DejaVuSans-31"/>
       <use xlink:href="#DejaVuSans-2e" x="63.623047"/>
       <use xlink:href="#DejaVuSans-30" x="95.410156"/>
      </g>
     </g>
    </g>
    <g id="ytick_6">
     <g id="line2d_13">
      <g>
       <use xlink:href="#mb4ac26e2b1" x="56.18" y="87.75654" style="stroke: #000000; stroke-width: 0.8"/>
      </g>
     </g>
     <g id="text_15">
      <!-- 1.5 -->
      <g transform="translate(33.276875 91.555759) scale(0.1 -0.1)">
       <use xlink:href="#DejaVuSans-31"/>
       <use xlink:href="#DejaVuSans-2e" x="63.623047"/>
       <use xlink:href="#DejaVuSans-35" x="95.410156"/>
      </g>
     </g>
    </g>
    <g id="ytick_7">
     <g id="line2d_14">
      <g>
       <use xlink:href="#mb4ac26e2b1" x="56.18" y="51.44534" style="stroke: #000000; stroke-width: 0.8"/>
      </g>
     </g>
     <g id="text_16">
      <!-- 2.0 -->
      <g transform="translate(33.276875 55.244559) scale(0.1 -0.1)">
       <use xlink:href="#DejaVuSans-32"/>
       <use xlink:href="#DejaVuSans-2e" x="63.623047"/>
       <use xlink:href="#DejaVuSans-30" x="95.410156"/>
      </g>
     </g>
    </g>
    <g id="text_17">
     <!-- Cross section -->
     <g transform="translate(18.8175 197.84) rotate(-90) scale(0.1 -0.1)">
      <defs>
       <path id="DejaVuSans-43" d="M 4122 4306 
L 4122 3641 
Q 3803 3938 3442 4084 
Q 3081 4231 2675 4231 
Q 1875 4231 1450 3742 
Q 1025 3253 1025 2328 
Q 1025 1406 1450 917 
Q 1875 428 2675 428 
Q 3081 428 3442 575 
Q 3803 722 4122 1019 
L 4122 359 
Q 3791 134 3420 21 
Q 3050 -91 2638 -91 
Q 1578 -91 968 557 
Q 359 1206 359 2328 
Q 359 3453 968 4101 
Q 1578 4750 2638 4750 
Q 3056 4750 3426 4639 
Q 3797 4528 4122 4306 
z
" transform="scale(0.015625)"/>
       <path id="DejaVuSans-6f" d="M 1959 3097 
Q 1497 3097 1228 2736 
Q 959 2375 959 1747 
Q 959 1119 1226 758 
Q 1494 397 1959 397 
Q 2419 397 2687 759 
Q 2956 1122 2956 1747 
Q 2956 2369 2687 2733 
Q 2419 3097 1959 3097 
z
M 1959 3584 
Q 2709 3584 3137 3096 
Q 3566 2609 3566 1747 
Q 3566 888 3137 398 
Q 2709 -91 1959 -91 
Q 1206 -91 779 398 
Q 353 888 353 1747 
Q 353 2609 779 3096 
Q 1206 3584 1959 3584 
z
" transform="scale(0.015625)"/>
       <path id="DejaVuSans-73" d="M 2834 3397 
L 2834 2853 
Q 2591 2978 2328 3040 
Q 2066 3103 1784 3103 
Q 1356 3103 1142 2972 
Q 928 2841 928 2578 
Q 928 2378 1081 2264 
Q 1234 2150 1697 2047 
L 1894 2003 
Q 2506 1872 2764 1633 
Q 3022 1394 3022 966 
Q 3022 478 2636 193 
Q 2250 -91 1575 -91 
Q 1294 -91 989 -36 
Q 684 19 347 128 
L 347 722 
Q 666 556 975 473 
Q 1284 391 1588 391 
Q 1994 391 2212 530 
Q 2431 669 2431 922 
Q 2431 1156 2273 1281 
Q 2116 1406 1581 1522 
L 1381 1569 
Q 847 1681 609 1914 
Q 372 2147 372 2553 
Q 372 3047 722 3315 
Q 1072 3584 1716 3584 
Q 2034 3584 2315 3537 
Q 2597 3491 2834 3397 
z
" transform="scale(0.015625)"/>
       <path id="DejaVuSans-20" transform="scale(0.015625)"/>
       <path id="DejaVuSans-63" d="M 3122 3366 
L 3122 2828 
Q 2878 2963 2633 3030 
Q 2388 3097 2138 3097 
Q 1578 3097 1268 2742 
Q 959 2388 959 1747 
Q 959 1106 1268 751 
Q 1578 397 2138 397 
Q 2388 397 2633 464 
Q 2878 531 3122 666 
L 3122 134 
Q 2881 22 2623 -34 
Q 2366 -91 2075 -91 
Q 1284 -91 818 406 
Q 353 903 353 1747 
Q 353 2603 823 3093 
Q 1294 3584 2113 3584 
Q 2378 3584 2631 3529 
Q 2884 3475 3122 3366 
z
" transform="scale(0.015625)"/>
       <path id="DejaVuSans-74" d="M 1172 4494 
L 1172 3500 
L 2356 3500 
L 2356 3053 
L 1172 3053 
L 1172 1153 
Q 1172 725 1289 603 
Q 1406 481 1766 481 
L 2356 481 
L 2356 0 
L 1766 0 
Q 1100 0 847 248 
Q 594 497 594 1153 
L 594 3053 
L 172 3053 
L 172 3500 
L 594 3500 
L 594 4494 
L 1172 4494 
z
" transform="scale(0.015625)"/>
       <path id="DejaVuSans-69" d="M 603 3500 
L 1178 3500 
L 1178 0 
L 603 0 
L 603 3500 
z
M 603 4863 
L 1178 4863 
L 1178 4134 
L 603 4134 
L 603 4863 
z
" transform="scale(0.015625)"/>
      </defs>
      <use xlink:href="#DejaVuSans-43"/>
      <use xlink:href="#DejaVuSans-72" x="69.824219"/>
      <use xlink:href="#DejaVuSans-6f" x="108.6875"/>
      <use xlink:href="#DejaVuSans-73" x="169.869141"/>
      <use xlink:href="#DejaVuSans-73" x="221.96875"/>
      <use xlink:href="#DejaVuSans-20" x="274.068359"/>
      <use xlink:href="#DejaVuSans-73" x="305.855469"/>
      <use xlink:href="#DejaVuSans-65" x="357.955078"/>
      <use xlink:href="#DejaVuSans-63" x="419.478516"/>
      <use xlink:href="#DejaVuSans-74" x="474.458984"/>
      <use xlink:href="#DejaVuSans-69" x="513.667969"/>
      <use xlink:href="#DejaVuSans-6f" x="541.451172"/>
      <use xlink:href="#DejaVuSans-6e" x="602.632812"/>
     </g>
    </g>
    <g id="text_18">
     <!-- 1e−6 -->
     <g transform="translate(56.18 22.44) scale(0.1 -0.1)">
      <use xlink:href="#DejaVuSans-31"/>
      <use xlink:href="#DejaVuSans-65" x="63.623047"/>
      <use xlink:href="#DejaVuSans-2212" x="125.146484"/>
      <use xlink:href="#DejaVuSans-36" x="208.935547"/>
     </g>
    </g>
   </g>
   <g id="line2d_15">
    <path d="M 74.080909 176.598553 
L 81.098767 176.486958 
L 87.973404 176.156334 
L 94.597403 175.616732 
L 100.863347 174.885682 
L 106.735433 173.979796 
L 112.213659 172.912487 
L 117.298025 171.698415 
L 122.024338 170.344163 
L 126.428402 168.853293 
L 130.546023 167.226154 
L 134.413006 165.459351 
L 138.029351 163.56498 
L 141.466669 161.5149 
L 144.724961 159.31509 
L 147.875836 156.918297 
L 150.883489 154.352105 
L 153.819532 151.554291 
L 156.683964 148.516966 
L 159.51259 145.192513 
L 162.341217 141.522025 
L 165.205649 137.436527 
L 168.177497 132.803619 
L 171.399983 127.354751 
L 175.302771 120.290662 
L 182.642878 106.913093 
L 184.934424 103.262437 
L 186.760499 100.749581 
L 188.300131 98.987561 
L 189.660736 97.754059 
L 190.87812 96.94104 
L 191.988087 96.460389 
L 193.026444 96.249642 
L 194.028995 96.274224 
L 195.031546 96.52832 
L 196.034097 97.014141 
L 197.108259 97.790519 
L 198.254032 98.904119 
L 199.507221 100.445374 
L 200.903631 102.533322 
L 202.479069 105.308581 
L 204.305144 108.994165 
L 206.560884 114.072771 
L 209.890786 122.181998 
L 216.192537 137.564832 
L 219.235996 144.353303 
L 221.957206 149.894543 
L 224.535195 154.652586 
L 227.041572 158.823128 
L 229.54795 162.565301 
L 232.054328 165.909133 
L 234.596512 168.92933 
L 237.1745 171.64824 
L 239.8241 174.121584 
L 242.581115 176.390688 
L 245.445547 178.460949 
L 248.453201 180.361997 
L 251.639881 182.114599 
L 255.0772 183.748585 
L 258.765156 185.252744 
L 262.77536 186.645099 
L 267.179424 187.934354 
L 272.048959 189.123108 
L 277.455574 190.210607 
L 283.578297 191.210765 
L 290.56035 192.120985 
L 298.65237 192.945807 
L 308.176606 193.686127 
L 319.562723 194.341045 
L 333.526828 194.91347 
L 351.17889 195.404468 
L 374.309177 195.813492 
L 406.247593 196.141485 
L 432.099091 196.299253 
L 432.099091 196.299253 
" clip-path="url(#p9fe4615fdd)" style="fill: none; stroke-dasharray: 5.55,2.4; stroke-dashoffset: 0; stroke: #7393b3; stroke-width: 1.5"/>
   </g>
   <g id="patch_3">
    <path d="M 56.18 303.64 
L 56.18 25.44 
" style="fill: none; stroke: #000000; stroke-width: 0.8; stroke-linejoin: miter; stroke-linecap: square"/>
   </g>
   <g id="patch_4">
    <path d="M 450 303.64 
L 450 25.44 
" style="fill: none; stroke: #000000; stroke-width: 0.8; stroke-linejoin: miter; stroke-linecap: square"/>
   </g>
   <g id="patch_5">
    <path d="M 56.18 303.64 
L 450 303.64 
" style="fill: none; stroke: #000000; stroke-width: 0.8; stroke-linejoin: miter; stroke-linecap: square"/>
   </g>
   <g id="patch_6">
    <path d="M 56.18 25.44 
L 450 25.44 
" style="fill: none; stroke: #000000; stroke-width: 0.8; stroke-linejoin: miter; stroke-linecap: square"/>
   </g>
   <g id="LineCollection_1">
    <path d="M 74.080909 239.932316 
L 74.080909 172.960358 
" clip-path="url(#p9fe4615fdd)" style="fill: none; stroke: #000000; stroke-width: 1.5"/>
    <path d="M 81.387403 152.068674 
L 81.387403 85.096715 
" clip-path="url(#p9fe4615fdd)" style="fill: none; stroke: #000000; stroke-width: 1.5"/>
    <path d="M 88.693896 237.007304 
L 88.693896 170.035346 
" clip-path="url(#p9fe4615fdd)" style="fill: none; stroke: #000000; stroke-width: 1.5"/>
    <path d="M 96.00039 233.934091 
L 96.00039 166.962133 
" clip-path="url(#p9fe4615fdd)" style="fill: none; stroke: #000000; stroke-width: 1.5"/>
    <path d="M 103.306883 203.305878 
L 103.306883 136.333919 
" clip-path="url(#p9fe4615fdd)" style="fill: none; stroke: #000000; stroke-width: 1.5"/>
    <path d="M 110.613377 214.170778 
L 110.613377 147.19882 
" clip-path="url(#p9fe4615fdd)" style="fill: none; stroke: #000000; stroke-width: 1.5"/>
    <path d="M 117.91987 207.21073 
L 117.91987 140.238772 
" clip-path="url(#p9fe4615fdd)" style="fill: none; stroke: #000000; stroke-width: 1.5"/>
    <path d="M 125.226364 176.350217 
L 125.226364 109.378259 
" clip-path="url(#p9fe4615fdd)" style="fill: none; stroke: #000000; stroke-width: 1.5"/>
    <path d="M 132.532857 210.887868 
L 132.532857 143.91591 
" clip-path="url(#p9fe4615fdd)" style="fill: none; stroke: #000000; stroke-width: 1.5"/>
    <path d="M 139.839351 151.952297 
L 139.839351 84.980339 
" clip-path="url(#p9fe4615fdd)" style="fill: none; stroke: #000000; stroke-width: 1.5"/>
    <path d="M 147.145844 224.376326 
L 147.145844 157.404367 
" clip-path="url(#p9fe4615fdd)" style="fill: none; stroke: #000000; stroke-width: 1.5"/>
    <path d="M 154.452338 179.139621 
L 154.452338 112.167663 
" clip-path="url(#p9fe4615fdd)" style="fill: none; stroke: #000000; stroke-width: 1.5"/>
    <path d="M 161.758831 211.889423 
L 161.758831 144.917465 
" clip-path="url(#p9fe4615fdd)" style="fill: none; stroke: #000000; stroke-width: 1.5"/>
    <path d="M 169.065325 139.257061 
L 169.065325 72.285103 
" clip-path="url(#p9fe4615fdd)" style="fill: none; stroke: #000000; stroke-width: 1.5"/>
    <path d="M 176.371818 122.053362 
L 176.371818 55.081404 
" clip-path="url(#p9fe4615fdd)" style="fill: none; stroke: #000000; stroke-width: 1.5"/>
    <path d="M 183.678312 137.92086 
L 183.678312 70.948902 
" clip-path="url(#p9fe4615fdd)" style="fill: none; stroke: #000000; stroke-width: 1.5"/>
    <path d="M 190.984805 126.169008 
L 190.984805 59.19705 
" clip-path="url(#p9fe4615fdd)" style="fill: none; stroke: #000000; stroke-width: 1.5"/>
    <path d="M 198.291299 190.624259 
L 198.291299 123.652301 
" clip-path="url(#p9fe4615fdd)" style="fill: none; stroke: #000000; stroke-width: 1.5"/>
    <path d="M 205.597792 105.057413 
L 205.597792 38.085455 
" clip-path="url(#p9fe4615fdd)" style="fill: none; stroke: #000000; stroke-width: 1.5"/>
    <path d="M 212.904286 181.60127 
L 212.904286 114.629312 
" clip-path="url(#p9fe4615fdd)" style="fill: none; stroke: #000000; stroke-width: 1.5"/>
    <path d="M 220.210779 230.025833 
L 220.210779 163.053875 
" clip-path="url(#p9fe4615fdd)" style="fill: none; stroke: #000000; stroke-width: 1.5"/>
    <path d="M 227.517273 167.047371 
L 227.517273 100.075412 
" clip-path="url(#p9fe4615fdd)" style="fill: none; stroke: #000000; stroke-width: 1.5"/>
    <path d="M 234.823766 259.758623 
L 234.823766 192.786664 
" clip-path="url(#p9fe4615fdd)" style="fill: none; stroke: #000000; stroke-width: 1.5"/>
    <path d="M 242.13026 242.227841 
L 242.13026 175.255883 
" clip-path="url(#p9fe4615fdd)" style="fill: none; stroke: #000000; stroke-width: 1.5"/>
    <path d="M 249.436753 231.38607 
L 249.436753 164.414111 
" clip-path="url(#p9fe4615fdd)" style="fill: none; stroke: #000000; stroke-width: 1.5"/>
    <path d="M 256.743247 262.750773 
L 256.743247 195.778814 
" clip-path="url(#p9fe4615fdd)" style="fill: none; stroke: #000000; stroke-width: 1.5"/>
    <path d="M 264.04974 182.920827 
L 264.04974 115.948869 
" clip-path="url(#p9fe4615fdd)" style="fill: none; stroke: #000000; stroke-width: 1.5"/>
    <path d="M 271.356234 180.32852 
L 271.356234 113.356562 
" clip-path="url(#p9fe4615fdd)" style="fill: none; stroke: #000000; stroke-width: 1.5"/>
    <path d="M 278.662727 176.130746 
L 278.662727 109.158788 
" clip-path="url(#p9fe4615fdd)" style="fill: none; stroke: #000000; stroke-width: 1.5"/>
    <path d="M 285.969221 214.894612 
L 285.969221 147.922654 
" clip-path="url(#p9fe4615fdd)" style="fill: none; stroke: #000000; stroke-width: 1.5"/>
    <path d="M 293.275714 212.312109 
L 293.275714 145.34015 
" clip-path="url(#p9fe4615fdd)" style="fill: none; stroke: #000000; stroke-width: 1.5"/>
    <path d="M 300.582208 205.399812 
L 300.582208 138.427854 
" clip-path="url(#p9fe4615fdd)" style="fill: none; stroke: #000000; stroke-width: 1.5"/>
    <path d="M 307.888701 233.327837 
L 307.888701 166.355879 
" clip-path="url(#p9fe4615fdd)" style="fill: none; stroke: #000000; stroke-width: 1.5"/>
    <path d="M 315.195195 288.984777 
L 315.195195 222.012818 
" clip-path="url(#p9fe4615fdd)" style="fill: none; stroke: #000000; stroke-width: 1.5"/>
    <path d="M 322.501688 153.702884 
L 322.501688 86.730926 
" clip-path="url(#p9fe4615fdd)" style="fill: none; stroke: #000000; stroke-width: 1.5"/>
    <path d="M 329.808182 186.75907 
L 329.808182 119.787112 
" clip-path="url(#p9fe4615fdd)" style="fill: none; stroke: #000000; stroke-width: 1.5"/>
    <path d="M 337.114675 246.968776 
L 337.114675 179.996818 
" clip-path="url(#p9fe4615fdd)" style="fill: none; stroke: #000000; stroke-width: 1.5"/>
    <path d="M 344.421169 229.508334 
L 344.421169 162.536376 
" clip-path="url(#p9fe4615fdd)" style="fill: none; stroke: #000000; stroke-width: 1.5"/>
    <path d="M 351.727662 290.994545 
L 351.727662 224.022587 
" clip-path="url(#p9fe4615fdd)" style="fill: none; stroke: #000000; stroke-width: 1.5"/>
    <path d="M 359.034156 209.600934 
L 359.034156 142.628975 
" clip-path="url(#p9fe4615fdd)" style="fill: none; stroke: #000000; stroke-width: 1.5"/>
    <path d="M 366.340649 254.391326 
L 366.340649 187.419368 
" clip-path="url(#p9fe4615fdd)" style="fill: none; stroke: #000000; stroke-width: 1.5"/>
    <path d="M 373.647143 230.130014 
L 373.647143 163.158056 
" clip-path="url(#p9fe4615fdd)" style="fill: none; stroke: #000000; stroke-width: 1.5"/>
    <path d="M 380.953636 255.614852 
L 380.953636 188.642894 
" clip-path="url(#p9fe4615fdd)" style="fill: none; stroke: #000000; stroke-width: 1.5"/>
    <path d="M 388.26013 250.665371 
L 388.26013 183.693412 
" clip-path="url(#p9fe4615fdd)" style="fill: none; stroke: #000000; stroke-width: 1.5"/>
    <path d="M 395.566623 254.047714 
L 395.566623 187.075756 
" clip-path="url(#p9fe4615fdd)" style="fill: none; stroke: #000000; stroke-width: 1.5"/>
    <path d="M 402.873117 236.616357 
L 402.873117 169.644399 
" clip-path="url(#p9fe4615fdd)" style="fill: none; stroke: #000000; stroke-width: 1.5"/>
    <path d="M 410.17961 233.251011 
L 410.17961 166.279053 
" clip-path="url(#p9fe4615fdd)" style="fill: none; stroke: #000000; stroke-width: 1.5"/>
    <path d="M 417.486104 221.763499 
L 417.486104 154.79154 
" clip-path="url(#p9fe4615fdd)" style="fill: none; stroke: #000000; stroke-width: 1.5"/>
    <path d="M 424.792597 224.897224 
L 424.792597 157.925266 
" clip-path="url(#p9fe4615fdd)" style="fill: none; stroke: #000000; stroke-width: 1.5"/>
    <path d="M 432.099091 237.08106 
L 432.099091 170.109102 
" clip-path="url(#p9fe4615fdd)" style="fill: none; stroke: #000000; stroke-width: 1.5"/>
   </g>
   <g id="text_19">
    <!-- Bayesian inference on Breit Wigner -->
    <g transform="translate(147.196563 19.44) scale(0.12 -0.12)">
     <defs>
      <path id="DejaVuSans-42" d="M 1259 2228 
L 1259 519 
L 2272 519 
Q 2781 519 3026 730 
Q 3272 941 3272 1375 
Q 3272 1813 3026 2020 
Q 2781 2228 2272 2228 
L 1259 2228 
z
M 1259 4147 
L 1259 2741 
L 2194 2741 
Q 2656 2741 2882 2914 
Q 3109 3088 3109 3444 
Q 3109 3797 2882 3972 
Q 2656 4147 2194 4147 
L 1259 4147 
z
M 628 4666 
L 2241 4666 
Q 2963 4666 3353 4366 
Q 3744 4066 3744 3513 
Q 3744 3084 3544 2831 
Q 3344 2578 2956 2516 
Q 3422 2416 3680 2098 
Q 3938 1781 3938 1306 
Q 3938 681 3513 340 
Q 3088 0 2303 0 
L 628 0 
L 628 4666 
z
" transform="scale(0.015625)"/>
      <path id="DejaVuSans-61" d="M 2194 1759 
Q 1497 1759 1228 1600 
Q 959 1441 959 1056 
Q 959 750 1161 570 
Q 1363 391 1709 391 
Q 2188 391 2477 730 
Q 2766 1069 2766 1631 
L 2766 1759 
L 2194 1759 
z
M 3341 1997 
L 3341 0 
L 2766 0 
L 2766 531 
Q 2569 213 2275 61 
Q 1981 -91 1556 -91 
Q 1019 -91 701 211 
Q 384 513 384 1019 
Q 384 1609 779 1909 
Q 1175 2209 1959 2209 
L 2766 2209 
L 2766 2266 
Q 2766 2663 2505 2880 
Q 2244 3097 1772 3097 
Q 1472 3097 1187 3025 
Q 903 2953 641 2809 
L 641 3341 
Q 956 3463 1253 3523 
Q 1550 3584 1831 3584 
Q 2591 3584 2966 3190 
Q 3341 2797 3341 1997 
z
" transform="scale(0.015625)"/>
      <path id="DejaVuSans-66" d="M 2375 4863 
L 2375 4384 
L 1825 4384 
Q 1516 4384 1395 4259 
Q 1275 4134 1275 3809 
L 1275 3500 
L 2222 3500 
L 2222 3053 
L 1275 3053 
L 1275 0 
L 697 0 
L 697 3053 
L 147 3053 
L 147 3500 
L 697 3500 
L 697 3744 
Q 697 4328 969 4595 
Q 1241 4863 1831 4863 
L 2375 4863 
z
" transform="scale(0.015625)"/>
      <path id="DejaVuSans-57" d="M 213 4666 
L 850 4666 
L 1831 722 
L 2809 4666 
L 3519 4666 
L 4500 722 
L 5478 4666 
L 6119 4666 
L 4947 0 
L 4153 0 
L 3169 4050 
L 2175 0 
L 1381 0 
L 213 4666 
z
" transform="scale(0.015625)"/>
     </defs>
     <use xlink:href="#DejaVuSans-42"/>
     <use xlink:href="#DejaVuSans-61" x="68.603516"/>
     <use xlink:href="#DejaVuSans-79" x="129.882812"/>
     <use xlink:href="#DejaVuSans-65" x="189.0625"/>
     <use xlink:href="#DejaVuSans-73" x="250.585938"/>
     <use xlink:href="#DejaVuSans-69" x="302.685547"/>
     <use xlink:href="#DejaVuSans-61" x="330.46875"/>
     <use xlink:href="#DejaVuSans-6e" x="391.748047"/>
     <use xlink:href="#DejaVuSans-20" x="455.126953"/>
     <use xlink:href="#DejaVuSans-69" x="486.914062"/>
     <use xlink:href="#DejaVuSans-6e" x="514.697266"/>
     <use xlink:href="#DejaVuSans-66" x="578.076172"/>
     <use xlink:href="#DejaVuSans-65" x="613.28125"/>
     <use xlink:href="#DejaVuSans-72" x="674.804688"/>
     <use xlink:href="#DejaVuSans-65" x="713.667969"/>
     <use xlink:href="#DejaVuSans-6e" x="775.191406"/>
     <use xlink:href="#DejaVuSans-63" x="838.570312"/>
     <use xlink:href="#DejaVuSans-65" x="893.550781"/>
     <use xlink:href="#DejaVuSans-20" x="955.074219"/>
     <use xlink:href="#DejaVuSans-6f" x="986.861328"/>
     <use xlink:href="#DejaVuSans-6e" x="1048.042969"/>
     <use xlink:href="#DejaVuSans-20" x="1111.421875"/>
     <use xlink:href="#DejaVuSans-42" x="1143.208984"/>
     <use xlink:href="#DejaVuSans-72" x="1211.8125"/>
     <use xlink:href="#DejaVuSans-65" x="1250.675781"/>
     <use xlink:href="#DejaVuSans-69" x="1312.199219"/>
     <use xlink:href="#DejaVuSans-74" x="1339.982422"/>
     <use xlink:href="#DejaVuSans-20" x="1379.191406"/>
     <use xlink:href="#DejaVuSans-57" x="1410.978516"/>
     <use xlink:href="#DejaVuSans-69" x="1507.605469"/>
     <use xlink:href="#DejaVuSans-67" x="1535.388672"/>
     <use xlink:href="#DejaVuSans-6e" x="1598.865234"/>
     <use xlink:href="#DejaVuSans-65" x="1662.244141"/>
     <use xlink:href="#DejaVuSans-72" x="1723.767578"/>
    </g>
   </g>
   <g id="line2d_16">
    <defs>
     <path id="m5ecc9548c3" d="M 0 1.5 
C 0.397805 1.5 0.77937 1.341951 1.06066 1.06066 
C 1.341951 0.77937 1.5 0.397805 1.5 0 
C 1.5 -0.397805 1.341951 -0.77937 1.06066 -1.06066 
C 0.77937 -1.341951 0.397805 -1.5 0 -1.5 
C -0.397805 -1.5 -0.77937 -1.341951 -1.06066 -1.06066 
C -1.341951 -0.77937 -1.5 -0.397805 -1.5 0 
C -1.5 0.397805 -1.341951 0.77937 -1.06066 1.06066 
C -0.77937 1.341951 -0.397805 1.5 0 1.5 
z
" style="stroke: #000000"/>
    </defs>
    <g clip-path="url(#p9fe4615fdd)">
     <use xlink:href="#m5ecc9548c3" x="74.080909" y="206.446337" style="stroke: #000000"/>
     <use xlink:href="#m5ecc9548c3" x="81.387403" y="118.582694" style="stroke: #000000"/>
     <use xlink:href="#m5ecc9548c3" x="88.693896" y="203.521325" style="stroke: #000000"/>
     <use xlink:href="#m5ecc9548c3" x="96.00039" y="200.448112" style="stroke: #000000"/>
     <use xlink:href="#m5ecc9548c3" x="103.306883" y="169.819898" style="stroke: #000000"/>
     <use xlink:href="#m5ecc9548c3" x="110.613377" y="180.684799" style="stroke: #000000"/>
     <use xlink:href="#m5ecc9548c3" x="117.91987" y="173.724751" style="stroke: #000000"/>
     <use xlink:href="#m5ecc9548c3" x="125.226364" y="142.864238" style="stroke: #000000"/>
     <use xlink:href="#m5ecc9548c3" x="132.532857" y="177.401889" style="stroke: #000000"/>
     <use xlink:href="#m5ecc9548c3" x="139.839351" y="118.466318" style="stroke: #000000"/>
     <use xlink:href="#m5ecc9548c3" x="147.145844" y="190.890347" style="stroke: #000000"/>
     <use xlink:href="#m5ecc9548c3" x="154.452338" y="145.653642" style="stroke: #000000"/>
     <use xlink:href="#m5ecc9548c3" x="161.758831" y="178.403444" style="stroke: #000000"/>
     <use xlink:href="#m5ecc9548c3" x="169.065325" y="105.771082" style="stroke: #000000"/>
     <use xlink:href="#m5ecc9548c3" x="176.371818" y="88.567383" style="stroke: #000000"/>
     <use xlink:href="#m5ecc9548c3" x="183.678312" y="104.434881" style="stroke: #000000"/>
     <use xlink:href="#m5ecc9548c3" x="190.984805" y="92.683029" style="stroke: #000000"/>
     <use xlink:href="#m5ecc9548c3" x="198.291299" y="157.13828" style="stroke: #000000"/>
     <use xlink:href="#m5ecc9548c3" x="205.597792" y="71.571434" style="stroke: #000000"/>
     <use xlink:href="#m5ecc9548c3" x="212.904286" y="148.115291" style="stroke: #000000"/>
     <use xlink:href="#m5ecc9548c3" x="220.210779" y="196.539854" style="stroke: #000000"/>
     <use xlink:href="#m5ecc9548c3" x="227.517273" y="133.561392" style="stroke: #000000"/>
     <use xlink:href="#m5ecc9548c3" x="234.823766" y="226.272643" style="stroke: #000000"/>
     <use xlink:href="#m5ecc9548c3" x="242.13026" y="208.741862" style="stroke: #000000"/>
     <use xlink:href="#m5ecc9548c3" x="249.436753" y="197.900091" style="stroke: #000000"/>
     <use xlink:href="#m5ecc9548c3" x="256.743247" y="229.264793" style="stroke: #000000"/>
     <use xlink:href="#m5ecc9548c3" x="264.04974" y="149.434848" style="stroke: #000000"/>
     <use xlink:href="#m5ecc9548c3" x="271.356234" y="146.842541" style="stroke: #000000"/>
     <use xlink:href="#m5ecc9548c3" x="278.662727" y="142.644767" style="stroke: #000000"/>
     <use xlink:href="#m5ecc9548c3" x="285.969221" y="181.408633" style="stroke: #000000"/>
     <use xlink:href="#m5ecc9548c3" x="293.275714" y="178.826129" style="stroke: #000000"/>
     <use xlink:href="#m5ecc9548c3" x="300.582208" y="171.913833" style="stroke: #000000"/>
     <use xlink:href="#m5ecc9548c3" x="307.888701" y="199.841858" style="stroke: #000000"/>
     <use xlink:href="#m5ecc9548c3" x="315.195195" y="255.498797" style="stroke: #000000"/>
     <use xlink:href="#m5ecc9548c3" x="322.501688" y="120.216905" style="stroke: #000000"/>
     <use xlink:href="#m5ecc9548c3" x="329.808182" y="153.273091" style="stroke: #000000"/>
     <use xlink:href="#m5ecc9548c3" x="337.114675" y="213.482797" style="stroke: #000000"/>
     <use xlink:href="#m5ecc9548c3" x="344.421169" y="196.022355" style="stroke: #000000"/>
     <use xlink:href="#m5ecc9548c3" x="351.727662" y="257.508566" style="stroke: #000000"/>
     <use xlink:href="#m5ecc9548c3" x="359.034156" y="176.114955" style="stroke: #000000"/>
     <use xlink:href="#m5ecc9548c3" x="366.340649" y="220.905347" style="stroke: #000000"/>
     <use xlink:href="#m5ecc9548c3" x="373.647143" y="196.644035" style="stroke: #000000"/>
     <use xlink:href="#m5ecc9548c3" x="380.953636" y="222.128873" style="stroke: #000000"/>
     <use xlink:href="#m5ecc9548c3" x="388.26013" y="217.179392" style="stroke: #000000"/>
     <use xlink:href="#m5ecc9548c3" x="395.566623" y="220.561735" style="stroke: #000000"/>
     <use xlink:href="#m5ecc9548c3" x="402.873117" y="203.130378" style="stroke: #000000"/>
     <use xlink:href="#m5ecc9548c3" x="410.17961" y="199.765032" style="stroke: #000000"/>
     <use xlink:href="#m5ecc9548c3" x="417.486104" y="188.27752" style="stroke: #000000"/>
     <use xlink:href="#m5ecc9548c3" x="424.792597" y="191.411245" style="stroke: #000000"/>
     <use xlink:href="#m5ecc9548c3" x="432.099091" y="203.595081" style="stroke: #000000"/>
    </g>
   </g>
   <g id="line2d_17">
    <path d="M 74.080909 171.128599 
L 80.382659 171.017128 
L 86.576993 170.686676 
L 92.628106 170.142027 
L 98.42858 169.398073 
L 103.942612 168.469149 
L 109.1702 167.365488 
L 114.111345 166.09728 
L 118.766047 164.676009 
L 123.170111 163.101871 
L 127.359342 161.370374 
L 131.369547 159.471918 
L 135.200725 157.411683 
L 138.888681 155.17569 
L 142.469221 152.744054 
L 145.97815 150.090681 
L 149.451273 147.183508 
L 152.960202 143.951372 
L 156.540742 140.347556 
L 160.407725 136.131696 
L 165.062427 130.706314 
L 174.121193 120.063972 
L 176.878209 117.230055 
L 179.098144 115.256608 
L 180.99583 113.856137 
L 182.678683 112.879419 
L 184.218316 112.234407 
L 185.650532 111.868583 
L 187.011137 111.744641 
L 188.335936 111.84316 
L 189.660736 112.164128 
L 191.021341 112.72799 
L 192.417752 113.55205 
L 193.885773 114.679694 
L 195.461211 116.173741 
L 197.215675 118.157131 
L 199.184972 120.738131 
L 201.440712 124.075894 
L 204.269339 128.682395 
L 208.780819 136.521635 
L 214.617099 146.564968 
L 218.161834 152.214394 
L 221.312709 156.827873 
L 224.320362 160.841255 
L 227.220599 164.347328 
L 230.120837 167.508161 
L 233.021074 170.344478 
L 235.992922 172.940733 
L 239.036381 175.304573 
L 242.187256 177.47052 
L 245.481353 179.4644 
L 248.954476 181.304883 
L 252.642433 183.005002 
L 256.581026 184.573582 
L 260.841869 186.02784 
L 265.460765 187.366758 
L 270.545132 188.605667 
L 276.166579 189.743363 
L 282.46833 190.788171 
L 289.629409 191.744701 
L 297.828846 192.610179 
L 307.388887 193.389557 
L 318.703393 194.082389 
L 332.416861 194.691663 
L 349.460231 195.217317 
L 371.373135 195.660173 
L 400.876783 196.021198 
L 432.099091 196.244925 
L 432.099091 196.244925 
" clip-path="url(#p9fe4615fdd)" style="fill: none; stroke: #fd8c3b; stroke-width: 1.5; stroke-linecap: square"/>
   </g>
   <g id="legend_1">
    <g id="patch_7">
     <path d="M 299.717188 77.474375 
L 443 77.474375 
Q 445 77.474375 445 75.474375 
L 445 32.44 
Q 445 30.44 443 30.44 
L 299.717188 30.44 
Q 297.717188 30.44 297.717188 32.44 
L 297.717188 75.474375 
Q 297.717188 77.474375 299.717188 77.474375 
z
" style="fill: #ffffff; opacity: 0.8; stroke: #cccccc; stroke-linejoin: miter"/>
    </g>
    <g id="line2d_18">
     <path d="M 301.717188 38.538437 
L 311.717188 38.538437 
L 321.717188 38.538437 
" style="fill: none; stroke-dasharray: 5.55,2.4; stroke-dashoffset: 0; stroke: #7393b3; stroke-width: 1.5"/>
    </g>
    <g id="text_20">
     <!-- true -->
     <g transform="translate(329.717188 42.038437) scale(0.1 -0.1)">
      <defs>
       <path id="DejaVuSans-75" d="M 544 1381 
L 544 3500 
L 1119 3500 
L 1119 1403 
Q 1119 906 1312 657 
Q 1506 409 1894 409 
Q 2359 409 2629 706 
Q 2900 1003 2900 1516 
L 2900 3500 
L 3475 3500 
L 3475 0 
L 2900 0 
L 2900 538 
Q 2691 219 2414 64 
Q 2138 -91 1772 -91 
Q 1169 -91 856 284 
Q 544 659 544 1381 
z
M 1991 3584 
L 1991 3584 
z
" transform="scale(0.015625)"/>
      </defs>
      <use xlink:href="#DejaVuSans-74"/>
      <use xlink:href="#DejaVuSans-72" x="39.208984"/>
      <use xlink:href="#DejaVuSans-75" x="80.322266"/>
      <use xlink:href="#DejaVuSans-65" x="143.701172"/>
     </g>
    </g>
    <g id="line2d_19">
     <path d="M 301.717188 53.216562 
L 311.717188 53.216562 
L 321.717188 53.216562 
" style="fill: none; stroke: #fd8c3b; stroke-width: 1.5; stroke-linecap: square"/>
    </g>
    <g id="text_21">
     <!-- inferred -->
     <g transform="translate(329.717188 56.716562) scale(0.1 -0.1)">
      <defs>
       <path id="DejaVuSans-64" d="M 2906 2969 
L 2906 4863 
L 3481 4863 
L 3481 0 
L 2906 0 
L 2906 525 
Q 2725 213 2448 61 
Q 2172 -91 1784 -91 
Q 1150 -91 751 415 
Q 353 922 353 1747 
Q 353 2572 751 3078 
Q 1150 3584 1784 3584 
Q 2172 3584 2448 3432 
Q 2725 3281 2906 2969 
z
M 947 1747 
Q 947 1113 1208 752 
Q 1469 391 1925 391 
Q 2381 391 2643 752 
Q 2906 1113 2906 1747 
Q 2906 2381 2643 2742 
Q 2381 3103 1925 3103 
Q 1469 3103 1208 2742 
Q 947 2381 947 1747 
z
" transform="scale(0.015625)"/>
      </defs>
      <use xlink:href="#DejaVuSans-69"/>
      <use xlink:href="#DejaVuSans-6e" x="27.783203"/>
      <use xlink:href="#DejaVuSans-66" x="91.162109"/>
      <use xlink:href="#DejaVuSans-65" x="126.367188"/>
      <use xlink:href="#DejaVuSans-72" x="187.890625"/>
      <use xlink:href="#DejaVuSans-72" x="227.253906"/>
      <use xlink:href="#DejaVuSans-65" x="266.117188"/>
      <use xlink:href="#DejaVuSans-64" x="327.640625"/>
     </g>
    </g>
    <g id="LineCollection_2">
     <path d="M 311.717188 72.894687 
L 311.717188 62.894687 
" style="fill: none; stroke: #000000; stroke-width: 1.5"/>
    </g>
    <g id="line2d_20"/>
    <g id="line2d_21">
     <g>
      <use xlink:href="#m5ecc9548c3" x="311.717188" y="67.894687" style="stroke: #000000"/>
     </g>
    </g>
    <g id="text_22">
     <!-- sim w\ Gaussian noise -->
     <g transform="translate(329.717188 71.394687) scale(0.1 -0.1)">
      <defs>
       <path id="DejaVuSans-6d" d="M 3328 2828 
Q 3544 3216 3844 3400 
Q 4144 3584 4550 3584 
Q 5097 3584 5394 3201 
Q 5691 2819 5691 2113 
L 5691 0 
L 5113 0 
L 5113 2094 
Q 5113 2597 4934 2840 
Q 4756 3084 4391 3084 
Q 3944 3084 3684 2787 
Q 3425 2491 3425 1978 
L 3425 0 
L 2847 0 
L 2847 2094 
Q 2847 2600 2669 2842 
Q 2491 3084 2119 3084 
Q 1678 3084 1418 2786 
Q 1159 2488 1159 1978 
L 1159 0 
L 581 0 
L 581 3500 
L 1159 3500 
L 1159 2956 
Q 1356 3278 1631 3431 
Q 1906 3584 2284 3584 
Q 2666 3584 2933 3390 
Q 3200 3197 3328 2828 
z
" transform="scale(0.015625)"/>
       <path id="DejaVuSans-77" d="M 269 3500 
L 844 3500 
L 1563 769 
L 2278 3500 
L 2956 3500 
L 3675 769 
L 4391 3500 
L 4966 3500 
L 4050 0 
L 3372 0 
L 2619 2869 
L 1863 0 
L 1184 0 
L 269 3500 
z
" transform="scale(0.015625)"/>
       <path id="DejaVuSans-5c" d="M 531 4666 
L 2156 -594 
L 1625 -594 
L 0 4666 
L 531 4666 
z
" transform="scale(0.015625)"/>
       <path id="DejaVuSans-47" d="M 3809 666 
L 3809 1919 
L 2778 1919 
L 2778 2438 
L 4434 2438 
L 4434 434 
Q 4069 175 3628 42 
Q 3188 -91 2688 -91 
Q 1594 -91 976 548 
Q 359 1188 359 2328 
Q 359 3472 976 4111 
Q 1594 4750 2688 4750 
Q 3144 4750 3555 4637 
Q 3966 4525 4313 4306 
L 4313 3634 
Q 3963 3931 3569 4081 
Q 3175 4231 2741 4231 
Q 1884 4231 1454 3753 
Q 1025 3275 1025 2328 
Q 1025 1384 1454 906 
Q 1884 428 2741 428 
Q 3075 428 3337 486 
Q 3600 544 3809 666 
z
" transform="scale(0.015625)"/>
      </defs>
      <use xlink:href="#DejaVuSans-73"/>
      <use xlink:href="#DejaVuSans-69" x="52.099609"/>
      <use xlink:href="#DejaVuSans-6d" x="79.882812"/>
      <use xlink:href="#DejaVuSans-20" x="177.294922"/>
      <use xlink:href="#DejaVuSans-77" x="209.082031"/>
      <use xlink:href="#DejaVuSans-5c" x="290.869141"/>
      <use xlink:href="#DejaVuSans-20" x="324.560547"/>
      <use xlink:href="#DejaVuSans-47" x="356.347656"/>
      <use xlink:href="#DejaVuSans-61" x="433.837891"/>
      <use xlink:href="#DejaVuSans-75" x="495.117188"/>
      <use xlink:href="#DejaVuSans-73" x="558.496094"/>
      <use xlink:href="#DejaVuSans-73" x="610.595703"/>
      <use xlink:href="#DejaVuSans-69" x="662.695312"/>
      <use xlink:href="#DejaVuSans-61" x="690.478516"/>
      <use xlink:href="#DejaVuSans-6e" x="751.757812"/>
      <use xlink:href="#DejaVuSans-20" x="815.136719"/>
      <use xlink:href="#DejaVuSans-6e" x="846.923828"/>
      <use xlink:href="#DejaVuSans-6f" x="910.302734"/>
      <use xlink:href="#DejaVuSans-69" x="971.484375"/>
      <use xlink:href="#DejaVuSans-73" x="999.267578"/>
      <use xlink:href="#DejaVuSans-65" x="1051.367188"/>
     </g>
    </g>
   </g>
  </g>
 </g>
 <defs>
  <clipPath id="p9fe4615fdd">
   <rect x="56.18" y="25.44" width="393.82" height="278.2"/>
  </clipPath>
 </defs>
</svg>
